HIERARCHY
ROOT Hips
{
	OFFSET -0.001795 -0.223333 0.028219
	CHANNELS 6 Xposition Yposition Zposition Zrotation Yrotation Xrotation 
	JOINT LeftUpLeg
	{
		OFFSET 0.069520 -0.091406 -0.006815
		CHANNELS 3 Zrotation Yrotation Xrotation
		JOINT LeftLeg
		{
			OFFSET 0.034277 -0.375199 -0.004496
			CHANNELS 3 Zrotation Yrotation Xrotation
			JOINT LeftFoot
			{
				OFFSET -0.013596 -0.397961 -0.043693
				CHANNELS 3 Zrotation Yrotation Xrotation
				JOINT LeftToe
				{
					OFFSET 0.026358 -0.055791 0.119288
					CHANNELS 3 Zrotation Yrotation Xrotation
					End Site
					{
						OFFSET 0.000000 0.000000 0.000000
					}
				}
			}
		}
	}
	JOINT RightUpLeg
	{
		OFFSET -0.067670 -0.090522 -0.004320
		CHANNELS 3 Zrotation Yrotation Xrotation
		JOINT RightLeg
		{
			OFFSET -0.038290 -0.382569 -0.008850
			CHANNELS 3 Zrotation Yrotation Xrotation
			JOINT RightFoot
			{
				OFFSET 0.015774 -0.398415 -0.042312
				CHANNELS 3 Zrotation Yrotation Xrotation
				JOINT RightToe
				{
					OFFSET -0.025372 -0.048144 0.123348
					CHANNELS 3 Zrotation Yrotation Xrotation
					End Site
					{
						OFFSET 0.000000 0.000000 0.000000
					}
				}
			}
		}
	}
	JOINT Spine
	{
		OFFSET -0.002533 0.108963 -0.026696
		CHANNELS 3 Zrotation Yrotation Xrotation
		JOINT Spine1
		{
			OFFSET 0.005487 0.135180 0.001092
			CHANNELS 3 Zrotation Yrotation Xrotation
			JOINT Spine2
			{
				OFFSET 0.001457 0.052922 0.025425
				CHANNELS 3 Zrotation Yrotation Xrotation
				JOINT Neck
				{
					OFFSET -0.002778 0.213870 -0.042857
					CHANNELS 3 Zrotation Yrotation Xrotation
					JOINT Head
					{
						OFFSET 0.005152 0.064970 0.051349
						CHANNELS 3 Zrotation Yrotation Xrotation
						End Site
						{
							OFFSET 0.000000 0.000000 0.000000
						}
					}
				}
				JOINT LeftShoulder
				{
					OFFSET 0.078845 0.121749 -0.034090
					CHANNELS 3 Zrotation Yrotation Xrotation
					JOINT LeftArm
					{
						OFFSET 0.090977 0.030469 -0.008868
						CHANNELS 3 Zrotation Yrotation Xrotation
						JOINT LeftForeArm
						{
							OFFSET 0.259612 -0.012772 -0.027456
							CHANNELS 3 Zrotation Yrotation Xrotation
							JOINT LeftHand
							{
								OFFSET 0.249234 0.008986 -0.001171
								CHANNELS 3 Zrotation Yrotation Xrotation
								End Site
								{
									OFFSET 0.000000 0.000000 0.000000
								}
							}
						}
					}
				}
				JOINT RightShoulder
				{
					OFFSET -0.081759 0.118833 -0.038615
					CHANNELS 3 Zrotation Yrotation Xrotation
					JOINT RightArm
					{
						OFFSET -0.096012 0.032551 -0.009143
						CHANNELS 3 Zrotation Yrotation Xrotation
						JOINT RightForeArm
						{
							OFFSET -0.253742 -0.013329 -0.021401
							CHANNELS 3 Zrotation Yrotation Xrotation
							JOINT RightHand
							{
								OFFSET -0.255298 0.007772 -0.005559
								CHANNELS 3 Zrotation Yrotation Xrotation
								End Site
								{
									OFFSET 0.000000 0.000000 0.000000
								}
							}
						}
					}
				}
			}
		}
	}
}
MOTION
Frames: 8
Frame Time: 0.050000
-0.078387 0.854029 -0.045506 -1.574594 1.572173 17.113561 14.868787 1.324235 -51.802894 -9.883313 3.555118 41.397523 7.450273 17.341491 15.860577 0.000000 0.000000 0.000000 -4.627411 2.890638 -48.719228 10.012945 -3.215031 36.414310 -2.928696 -6.144277 -4.438923 0.000000 0.000000 0.000000 -4.351285 -0.551277 60.799826 -2.403041 1.156268 -13.676968 -1.561975 13.569634 21.064730 12.088353 -4.650769 -17.589213 0.000000 0.000000 0.000000 10.852477 -17.440245 5.991644 -54.767507 -26.128757 1.582225 -115.025709 -59.318874 82.745061 0.000000 0.000000 0.000000 -0.928379 14.766944 6.135254 59.285679 37.245275 15.480433 0.126191 60.354348 5.909370 0.000000 0.000000 0.000000 
-0.078439 0.854668 -0.046903 -1.554175 1.811853 17.540887 14.867531 1.271774 -52.255085 -9.864518 3.495927 41.085022 7.354205 17.255122 16.087455 0.000000 0.000000 0.000000 -4.890397 2.768749 -49.399360 10.295209 -3.383830 36.527160 -2.885816 -6.340420 -3.617856 0.000000 0.000000 0.000000 -4.258756 -0.698758 61.071233 -2.581726 1.213822 -14.004389 -1.534108 13.495393 21.168167 11.688080 -4.216863 -18.280263 0.000000 0.000000 0.000000 10.578096 -17.878230 6.088910 -55.368136 -26.147050 1.648143 -114.303389 -58.488785 81.060522 0.000000 0.000000 0.000000 -0.158812 15.186859 6.528122 58.412081 37.170584 14.926937 -0.777466 59.771421 5.343904 0.000000 0.000000 0.000000 
-0.078383 0.855149 -0.048246 -1.563501 1.827697 17.745861 14.769962 1.236048 -52.569113 -9.663259 3.390994 41.068247 7.300721 17.204151 16.375078 0.000000 0.000000 0.000000 -5.167551 2.669530 -49.716594 10.714255 -3.570626 36.411998 -2.823404 -6.381813 -3.039265 0.000000 0.000000 0.000000 -4.281851 -0.691211 61.222852 -2.785026 1.277046 -14.333545 -1.592378 13.349088 21.522755 11.515954 -4.082411 -18.457811 0.000000 0.000000 0.000000 10.436101 -18.183840 6.149992 -56.004589 -26.362851 1.796019 -113.283876 -58.998814 80.783748 0.000000 0.000000 0.000000 -0.013370 15.314616 6.620838 57.990268 37.237220 14.707391 -1.085062 59.583536 5.157788 0.000000 0.000000 0.000000 
-0.078311 0.855353 -0.049561 -1.578033 1.968828 17.917148 14.775235 1.218006 -53.051284 -9.628329 3.372670 41.299156 7.185256 17.083133 16.836299 0.000000 0.000000 0.000000 -5.723651 2.427409 -50.066376 11.616782 -4.002251 36.346376 -2.781084 -6.531834 -2.303613 0.000000 0.000000 0.000000 -4.133259 -0.851107 61.722613 -2.870182 1.303179 -15.254101 -1.620063 13.247248 22.097750 11.352302 -3.786409 -19.346911 0.000000 0.000000 0.000000 10.202661 -18.805068 6.284951 -57.008438 -26.305587 1.829001 -111.093474 -59.363229 79.103572 0.000000 0.000000 0.000000 0.448352 15.703096 6.901865 57.667038 37.158383 14.401091 -2.292227 59.333864 4.456894 0.000000 0.000000 0.000000 
-0.078055 0.856450 -0.050822 -1.621519 1.685264 18.061733 14.678951 1.267415 -53.179889 -9.397903 3.297122 41.232115 7.206419 17.107569 17.271883 0.000000 0.000000 0.000000 -6.081567 2.357906 -50.236404 12.241191 -4.217998 36.008059 -2.618533 -6.379521 -1.509623 0.000000 0.000000 0.000000 -4.103043 -0.767556 62.037866 -3.140640 1.377826 -16.388164 -1.609110 12.880288 22.905408 11.415325 -3.746400 -19.999881 0.000000 0.000000 0.000000 10.543432 -19.158389 6.341619 -58.259400 -26.725163 2.113611 -107.415754 -60.108361 76.694477 0.000000 0.000000 0.000000 1.074788 16.118673 7.206379 57.364538 37.527741 14.274772 -2.205418 58.472455 4.339688 0.000000 0.000000 0.000000 
-0.077726 0.856261 -0.052043 -1.660398 1.643450 18.443746 14.775980 1.361218 -54.006408 -9.465603 3.382074 41.722194 7.145033 17.060969 17.954872 0.000000 0.000000 0.000000 -6.399886 2.262401 -50.827929 12.719832 -4.430611 36.012460 -2.568132 -6.441415 -0.979868 0.000000 0.000000 0.000000 -3.832707 -0.929833 62.221087 -3.185605 1.382093 -17.737774 -1.888300 12.545810 23.410293 11.311405 -3.369300 -21.642912 0.000000 0.000000 0.000000 9.796058 -19.067502 6.303258 -58.456913 -26.129104 1.943463 -103.240609 -60.119275 72.759272 0.000000 0.000000 0.000000 2.610323 16.021820 7.565551 56.439386 37.215621 13.415096 -0.332569 57.651130 5.252475 0.000000 0.000000 0.000000 
-0.077254 0.856418 -0.053276 -1.519102 1.620857 18.809412 14.590729 1.289446 -54.320187 -9.395174 3.332413 41.440997 7.181752 17.130372 18.005290 0.000000 0.000000 0.000000 -7.001860 2.027325 -51.174788 13.382163 -4.697399 35.645920 -2.527635 -6.487557 -0.565374 0.000000 0.000000 0.000000 -3.782110 -0.943348 61.917917 -3.033002 1.336132 -18.712921 -1.966876 12.152968 23.878373 11.299214 -3.218877 -22.587388 0.000000 0.000000 0.000000 9.186677 -19.356659 6.364529 -58.941953 -25.743975 1.896236 -99.160411 -61.098249 70.207216 0.000000 0.000000 0.000000 3.025096 16.006635 7.645496 56.288842 36.870655 13.011526 1.188833 57.036924 5.933071 0.000000 0.000000 0.000000 
-0.076644 0.855651 -0.054428 -1.485391 1.316800 18.975801 14.812410 1.483660 -54.376410 -9.856696 3.601375 41.208282 7.365246 17.354764 17.877201 0.000000 0.000000 0.000000 -7.604771 1.860482 -51.490298 14.263451 -5.043763 35.504636 -2.446144 -6.401588 -0.238783 0.000000 0.000000 0.000000 -3.575371 -0.980221 62.385886 -3.123078 1.345858 -20.657398 -2.215710 11.612056 24.639105 11.367006 -3.014263 -24.253369 0.000000 0.000000 0.000000 8.611362 -19.647004 6.421084 -59.389642 -25.149819 1.767587 -94.850241 -62.699110 68.333257 0.000000 0.000000 0.000000 4.068474 16.136378 7.918063 55.786666 36.672424 12.429341 1.952233 56.182362 6.139494 0.000000 0.000000 0.000000 
